Coordinates
version=1
nRows=16
nColumns=40
inDegrees=yes

Units are S.I. units (second, meters, Newtons, ...)
If the header above contains a line with 'inDegrees', this indicates whether rotational values are in degrees (yes) or radians (no).

endheader
time	pelvis_tilt	pelvis_list	pelvis_rotation	pelvis_tx	pelvis_ty	pelvis_tz	hip_flexion_r	hip_adduction_r	hip_rotation_r	knee_angle_r	knee_angle_r_beta	ankle_angle_r	subtalar_angle_r	mtp_angle_r	hip_flexion_l	hip_adduction_l	hip_rotation_l	knee_angle_l	knee_angle_l_beta	ankle_angle_l	subtalar_angle_l	mtp_angle_l	lumbar_extension	lumbar_bending	lumbar_rotation	arm_flex_r	arm_add_r	arm_rot_r	elbow_flex_r	pro_sup_r	wrist_flex_r	wrist_dev_r	arm_flex_l	arm_add_l	arm_rot_l	elbow_flex_l	pro_sup_l	wrist_flex_l	wrist_dev_l
      1.90000000	      6.08955462	      0.93309781	     -0.15663111	     -0.25741025	      1.05938515	     -0.99421631	      4.78594505	     -7.79115705	      3.81600840	      8.65732708	      0.15109886	     -3.95412687	      0.00000000	      0.00000000	     -0.29410389	      3.41797919	     -3.58882129	     15.59923195	      0.27225796	     -1.94053118	      0.00000000	      0.00000000	     -8.83354125	     -5.53995143	     -3.81055780	     87.61349347	     -8.04983967	     64.74061848	     47.71208952	     83.47628457	      0.00000000	      0.00000000	     89.68409603	    -15.31014244	     69.16980921	     48.45154237	     87.55343229	      0.00000000	      0.00000000
      1.90500000	      6.09503955	      0.86631353	     -0.16111858	     -0.25760625	      1.05921079	     -0.99414009	      4.89286077	     -7.67628616	      3.79241579	      8.72972555	      0.15236245	     -3.92077108	      0.00000000	      0.00000000	     -0.19532698	      3.33893363	     -3.64377807	     15.80318982	      0.27581769	     -1.83280548	      0.00000000	      0.00000000	     -8.86206642	     -5.50297610	     -3.75859332	     87.67403572	     -8.11542832	     64.92563364	     47.76063175	     83.44223060	      0.00000000	      0.00000000	     89.68607997	    -15.24842490	     69.05001789	     48.37995816	     87.55381037	      0.00000000	      0.00000000
      1.91000000	      5.98680682	      0.76752126	     -0.05418149	     -0.25831712	      1.05880196	     -0.99394613	      5.13152657	     -7.52705623	      3.93035061	      8.78924291	      0.15340123	     -3.84429568	      0.00000000	      0.00000000	      0.15982365	      3.20388629	     -3.47419324	     16.21692555	      0.28303875	     -1.61297615	      0.00000000	      0.00000000	     -8.82421697	     -5.41232897	     -3.88545829	     87.72386546	     -7.95077078	     64.76631666	     47.58548987	     82.02414846	      0.00000000	      0.00000000	     89.69277408	    -15.33654645	     68.93264124	     48.39548546	     87.63116695	      0.00000000	      0.00000000
      1.91500000	      6.09159821	      0.88336158	     -0.21551695	     -0.25829981	      1.05888030	     -0.99389003	      5.13093617	     -7.61459862	      4.18881640	      8.81343372	      0.15382344	     -3.88899167	      0.00000000	      0.00000000	      0.07455996	      3.34646630	     -3.57245309	     16.26420549	      0.28386394	     -1.66520901	      0.00000000	      0.00000000	     -8.95554819	     -5.57513871	     -3.72079018	     87.73336347	     -7.99267572	     64.63196912	     47.62237902	     83.39467230	      0.00000000	      0.00000000	     89.69278293	    -15.34935908	     68.90489340	     48.49767764	     87.56541510	      0.00000000	      0.00000000
      1.92000000	      6.03246016	      0.83542004	     -0.31744206	     -0.25848959	      1.05865161	     -0.99367478	      5.31280107	     -7.51618240	      4.38765751	      8.82391388	      0.15400635	     -3.80303575	      0.00000000	      0.00000000	      0.23045866	      3.28655434	     -3.67718663	     16.45434718	      0.28718253	     -1.52680461	      0.00000000	      0.00000000	     -8.91139945	     -5.57583503	     -3.57237330	     87.70877071	     -8.05419001	     64.74396820	     47.69981108	     83.34233287	      0.00000000	      0.00000000	     89.68924826	    -15.28501721	     68.91393320	     48.38028164	     87.58388758	      0.00000000	      0.00000000
      1.92500000	      6.02901266	      0.86281005	     -0.34121706	     -0.25892605	      1.05844022	     -0.99349669	      5.46626974	     -7.49444813	      4.61205987	      8.90444784	      0.15541193	     -3.64306273	      0.00000000	      0.00000000	      0.36820116	      3.29759720	     -3.71497808	     16.68257740	      0.29116590	     -1.47583738	      0.00000000	      0.00000000	     -8.95730321	     -5.61878084	     -3.50149723	     87.75219179	     -8.04089011	     64.53212572	     47.66772432	     83.53756352	      0.00000000	      0.00000000	     89.69389882	    -15.22882902	     68.80175595	     48.34812141	     87.53958025	      0.00000000	      0.00000000
      1.93000000	      5.97190154	      0.79620311	     -0.39053563	     -0.25953274	      1.05822435	     -0.99333383	      5.69259010	     -7.37388732	      4.69915101	      8.99248984	      0.15694856	     -3.64853685	      0.00000000	      0.00000000	      0.59514251	      3.21603469	     -3.72821861	     16.94724404	      0.29578521	     -1.36311705	      0.00000000	      0.00000000	     -8.96338118	     -5.57930845	     -3.42530150	     87.80405893	     -8.01509502	     64.52958446	     47.62867723	     83.47186995	      0.00000000	      0.00000000	     89.69627461	    -15.20830530	     68.71645448	     48.31306130	     87.54574821	      0.00000000	      0.00000000
      1.93500000	      6.01601229	      0.74478042	     -0.40918444	     -0.25939862	      1.05800644	     -0.99327002	      5.70715393	     -7.28197045	      4.70036489	      8.96035015	      0.15638761	     -3.50745435	      0.00000000	      0.00000000	      0.60995522	      3.15752485	     -3.70483516	     17.11269776	      0.29867292	     -1.19761992	      0.00000000	      0.00000000	     -9.01677220	     -5.53280755	     -3.40607293	     87.82838185	     -7.94612268	     64.57507583	     47.54300051	     83.56877611	      0.00000000	      0.00000000	     89.69673711	    -15.27137443	     68.68794751	     48.40919570	     87.53728099	      0.00000000	      0.00000000
      1.94000000	      6.05249129	      0.74019879	     -0.39712258	     -0.25984262	      1.05786863	     -0.99311712	      5.76155583	     -7.22948473	      4.86861460	      8.93802856	      0.15599803	     -3.59572405	      0.00000000	      0.00000000	      0.70636795	      3.14114750	     -3.63424120	     17.35667590	      0.30293114	     -1.08752783	      0.00000000	      0.00000000	     -9.13102584	     -5.53950831	     -3.43208256	     87.97261429	     -7.95479105	     65.06097341	     47.67764792	     80.50337410	      0.00000000	      0.00000000	     89.70090625	    -15.38726342	     68.55500864	     48.53356109	     87.46562204	      0.00000000	      0.00000000
      1.94500000	      5.94382370	      0.72500275	     -0.53722157	     -0.26006052	      1.05750769	     -0.99288097	      6.06584488	     -7.16994954	      4.95433993	      9.06065388	      0.15813824	     -3.39700624	      0.00000000	      0.00000000	      0.94739303	      3.10309147	     -3.93007944	     17.59188676	      0.30703635	     -0.98037845	      0.00000000	      0.00000000	     -9.03111351	     -5.57935068	     -3.26025431	     87.90976866	     -7.90937112	     64.78069165	     47.48072193	     83.38423434	      0.00000000	      0.00000000	     89.70238167	    -15.34069989	     68.54016970	     48.48569711	     87.55210598	      0.00000000	      0.00000000
      1.95000000	      5.91491821	      0.67371121	     -0.56295629	     -0.26048094	      1.05728371	     -0.99269158	      6.22213039	     -7.06452028	      5.07760367	      9.08800620	      0.15861563	     -3.41573831	      0.00000000	      0.00000000	      1.09201400	      3.03474220	     -3.81628243	     17.77706404	      0.31026830	     -0.88243900	      0.00000000	      0.00000000	     -9.04559810	     -5.54874305	     -3.21333422	     87.91379065	     -7.87009890	     64.72826501	     47.43150332	     83.56904428	      0.00000000	      0.00000000	     89.70385469	    -15.34841665	     68.45003404	     48.46897758	     87.53106689	      0.00000000	      0.00000000
      1.95500000	      5.74560284	      0.48620385	     -0.44343939	     -0.26124856	      1.05684013	     -0.99242917	      6.55570100	     -6.79367168	      5.04182657	      9.19918762	      0.16055611	     -3.36433671	      0.00000000	      0.00000000	      1.50668524	      2.80370977	     -3.62289103	     18.19499787	      0.31756262	     -0.64393645	      0.00000000	      0.00000000	     -8.96578514	     -5.37110841	     -3.28738712	     87.95331685	     -7.81874354	     64.76400792	     47.36465319	     82.36396323	      0.00000000	      0.00000000	     89.71280140	    -15.36428014	     68.35093808	     48.47667914	     87.53677096	      0.00000000	      0.00000000
      1.96000000	      5.82048754	      0.57371329	     -0.58812404	     -0.26121956	      1.05687922	     -0.99237596	      6.56254711	     -6.85257933	      5.26797310	      9.13829323	      0.15949330	     -3.32059382	      0.00000000	      0.00000000	      1.44030170	      2.91382856	     -3.72012344	     18.22211821	      0.31803596	     -0.62501891	      0.00000000	      0.00000000	     -9.04919768	     -5.49985106	     -3.16358459	     87.91886897	     -7.82851435	     64.64281763	     47.42567369	     83.54405143	      0.00000000	      0.00000000	     89.70859909	    -15.38689524	     68.38455322	     48.47091710	     87.53541052	      0.00000000	      0.00000000
      1.96500000	      5.85005703	      0.55725458	     -0.65583145	     -0.26155176	      1.05677793	     -0.99219423	      6.64297703	     -6.78463401	      5.45361276	      9.12238921	      0.15921573	     -3.20367349	      0.00000000	      0.00000000	      1.52217505	      2.88469081	     -3.80774117	     18.41961705	      0.32148296	     -0.57874740	      0.00000000	      0.00000000	     -9.12350282	     -5.50886491	     -3.07017521	     87.93135357	     -7.82916640	     64.57083554	     47.49088543	     83.52245185	      0.00000000	      0.00000000	     89.70864910	    -15.38247171	     68.34478312	     48.46210966	     87.53653558	      0.00000000	      0.00000000
      1.97000000	      5.80989079	      0.56949489	     -0.66836110	     -0.26193500	      1.05648943	     -0.99212574	      6.80220806	     -6.75266848	      5.44910220	      9.11457191	      0.15907929	     -3.09493916	      0.00000000	      0.00000000	      1.70002567	      2.89151982	     -3.82281563	     18.65404843	      0.32557456	     -0.42275686	      0.00000000	      0.00000000	     -9.13187605	     -5.53046547	     -3.06795958	     87.97155158	     -7.73762138	     64.61930220	     47.37295073	     83.58406292	      0.00000000	      0.00000000	     89.71454603	    -15.46426166	     68.30354334	     48.53185525	     87.53870939	      0.00000000	      0.00000000
      1.97500000	      5.75564651	      0.52119284	     -0.73762937	     -0.26234605	      1.05626946	     -0.99191184	      6.99369909	     -6.64292608	      5.65927433	      9.16121682	      0.15989340	     -3.19656230	      0.00000000	      0.00000000	      1.86578776	      2.82658668	     -3.85360739	     18.83398086	      0.32871498	     -0.33983840	      0.00000000	      0.00000000	     -9.11966515	     -5.49823503	     -2.98223120	     88.03869656	     -7.70500818	     64.80751206	     47.37183068	     81.54936637	      0.00000000	      0.00000000	     89.71311841	    -15.51372015	     68.32141648	     48.59570877	     87.55326215	      0.00000000	      0.00000000
